<?xml version="1.0" standalone="no"?>
<!DOCTYPE svg PUBLIC "-//W3C//DTD SVG 20010904//EN"
 "http://www.w3.org/TR/2001/REC-SVG-20010904/DTD/svg10.dtd">
<svg version="1.0" xmlns="http://www.w3.org/2000/svg"
 width="483.000000pt" height="275.000000pt" viewBox="0 0 483.000000 275.000000"
 preserveAspectRatio="xMidYMid meet">
<metadata>
Created by potrace 1.15, written by Peter Selinger 2001-2017
</metadata>
<g transform="translate(0.000000,275.000000) scale(0.100000,-0.100000)"
fill="#000000" stroke="none">
<path d="M1746 1768 c-37 -63 -70 -142 -100 -236 -32 -101 -34 -152 -6 -177
20 -18 20 -17 20 15 0 80 72 274 134 360 l36 50 -30 15 c-29 15 -29 15 -54
-27z"/>
<path d="M4021 1766 c-47 -66 -98 -180 -121 -270 -34 -135 -22 -171 29 -81 31
54 117 153 126 144 2 -3 -7 -32 -20 -65 -32 -77 -33 -114 -2 -114 12 0 29 5
37 10 13 8 12 10 -2 10 -10 0 -18 5 -18 10 0 16 38 88 72 137 l29 43 -25 11
c-38 18 -73 3 -127 -53 -27 -28 -49 -45 -49 -38 0 30 82 178 124 226 l45 51
-25 12 c-36 16 -37 15 -73 -33z"/>
<path d="M828 1753 c-67 -3 -88 -7 -88 -18 0 -8 9 -20 20 -28 19 -13 19 -15 2
-66 -11 -35 -24 -57 -39 -64 -18 -8 -20 -13 -11 -27 9 -14 5 -34 -20 -94 l-31
-77 20 -20 c14 -14 28 -19 42 -15 12 3 59 6 105 6 81 0 82 0 82 25 0 23 -4 25
-42 25 -24 -1 -63 -5 -88 -10 -25 -4 -47 -6 -49 -4 -7 6 28 115 45 142 12 18
23 22 68 22 61 0 69 5 55 32 -9 17 -17 19 -50 14 -21 -3 -39 -2 -39 3 0 4 9
30 21 55 23 54 46 66 120 66 47 0 49 1 39 20 -8 14 -20 19 -43 18 -18 -1 -71
-4 -119 -5z"/>
<path d="M2762 1744 c-60 -31 -78 -108 -34 -147 9 -8 59 -36 110 -61 51 -26
95 -53 98 -61 9 -23 -14 -53 -52 -65 -59 -20 -139 3 -188 52 -29 29 -41 36
-47 26 -15 -22 -10 -54 11 -81 28 -36 143 -72 195 -63 75 14 124 99 93 163 -9
19 -37 41 -89 68 -105 56 -129 73 -129 94 0 51 144 54 203 3 21 -18 35 -8 39
28 4 32 -35 51 -116 57 -44 3 -70 -1 -94 -13z"/>
<path d="M1438 1638 c-7 -13 -29 -68 -50 -123 -77 -201 -92 -272 -65 -309 11
-16 17 -5 42 85 36 130 72 202 132 264 37 39 48 46 51 33 5 -25 -39 -117 -77
-160 -17 -20 -31 -38 -31 -42 0 -15 46 -4 77 20 38 29 58 64 72 125 19 86 -33
107 -100 40 -22 -21 -39 -37 -39 -34 0 2 11 26 25 54 14 27 23 54 20 59 -11
18 -44 10 -57 -12z"/>
<path d="M998 1553 c-34 -75 -43 -120 -34 -157 8 -34 18 -33 40 5 26 44 115
149 127 149 5 0 -1 -21 -15 -47 -34 -68 -41 -107 -21 -123 8 -7 17 -11 18 -9
25 37 93 121 115 142 l30 28 -21 -58 c-26 -76 -19 -113 23 -113 16 0 32 5 35
10 3 6 -1 10 -9 10 -24 0 -20 34 14 110 34 77 36 88 16 96 -25 10 -74 -25
-117 -81 -23 -31 -44 -54 -46 -51 -2 2 10 29 27 59 31 55 31 56 11 67 -31 16
-74 -11 -128 -80 -25 -33 -48 -60 -49 -60 -7 0 16 51 41 89 29 47 31 66 9 75
-29 11 -35 6 -66 -61z"/>
<path d="M1806 1590 c-43 -38 -67 -89 -68 -142 0 -33 5 -47 26 -65 26 -22 29
-22 64 -8 49 21 71 42 93 90 29 63 25 98 -15 129 -44 33 -58 33 -100 -4z"/>
<path d="M2025 1586 c-30 -40 -65 -125 -65 -160 0 -31 33 -60 60 -51 12 4 35
25 51 48 29 40 30 41 23 12 -11 -46 -50 -120 -85 -160 -38 -43 -100 -65 -125
-44 -15 12 -17 12 -12 -1 2 -8 21 -21 41 -29 34 -13 40 -12 84 11 55 28 113
104 139 183 9 28 30 83 47 124 24 60 27 75 16 82 -26 16 -34 9 -78 -71 -44
-79 -95 -139 -107 -127 -9 9 33 123 62 168 13 20 20 40 17 43 -15 15 -44 3
-68 -28z"/>
<path d="M2307 1601 c-48 -31 -80 -86 -85 -145 -4 -49 -2 -55 24 -75 36 -28
68 -21 114 25 l35 36 -48 -30 c-52 -33 -72 -33 -80 -1 -6 22 3 32 53 58 40 21
80 74 80 105 0 47 -44 59 -93 27z"/>
<path d="M2519 1605 c-43 -23 -82 -90 -87 -149 -4 -48 -2 -55 24 -75 36 -29
68 -21 114 26 25 26 28 32 10 20 -75 -50 -91 -52 -104 -10 -6 18 0 25 41 45
51 26 93 77 93 112 0 44 -41 58 -91 31z"/>
<path d="M3083 1601 c-79 -49 -110 -180 -51 -224 23 -17 31 -18 56 -8 16 7 43
27 58 44 27 29 27 30 4 14 -64 -44 -78 -48 -94 -31 -26 26 -18 42 32 67 72 36
114 111 80 145 -17 17 -48 15 -85 -7z"/>
<path d="M3506 1593 c-7 -16 -26 -66 -40 -112 -23 -74 -25 -86 -12 -99 16 -16
36 -8 36 14 0 24 30 76 63 111 l31 33 22 -21 c31 -29 42 -18 42 41 1 63 -12
64 -61 5 -47 -56 -64 -58 -37 -5 11 23 18 45 15 50 -12 20 -45 10 -59 -17z"/>
<path d="M3742 1600 c-72 -44 -95 -141 -46 -199 32 -38 62 -40 104 -5 40 34
33 41 -14 13 -44 -26 -66 -14 -66 35 0 67 83 177 112 148 8 -8 7 -18 -6 -38
-22 -32 -8 -54 18 -29 19 19 21 66 4 83 -18 18 -69 14 -106 -8z"/>
<path d="M3263 1566 c-36 -41 -63 -100 -63 -139 0 -8 9 -25 19 -38 17 -21 21
-22 42 -11 13 8 37 30 53 50 28 36 28 36 22 9 -10 -41 1 -67 28 -67 22 0 23 3
19 43 -3 28 2 60 16 97 25 65 25 66 7 73 -10 4 -26 -14 -51 -58 -38 -69 -81
-125 -96 -125 -13 0 -11 47 2 73 16 32 81 97 96 97 16 0 17 12 1 28 -24 24
-56 13 -95 -32z"/>
</g>
</svg>
